<svg xmlns="http://www.w3.org/2000/svg" version="1.1" viewBox="-5.0 -10.0 110.0 135.0">
 <path d="m50.02 50-0.13672-0.35156-15.5-40.195 7.043-2.0469 8.5742-1.2305"/>
 <path d="m49.996 93.898c-8.7461 0.011718-17.297-2.5977-24.543-7.5-7.0586-4.7617-12.582-11.473-15.902-19.312-5.7852-13.668-4.2617-29.332 4.0508-41.629 4.7617-7.0586 11.473-12.582 19.312-15.906 13.668-5.7812 29.332-4.2578 41.629 4.0508 7.0586 4.7617 12.582 11.473 15.906 19.312 5.7852 13.668 4.2617 29.332-4.0469 41.629-4.7656 7.0586-11.473 12.582-19.316 15.906-5.4062 2.2891-11.219 3.4609-17.09 3.4492zm0-86.883c-23.699 0-42.98 19.281-42.98 42.98 0 23.699 19.281 42.988 42.98 42.988 23.699 0 42.988-19.281 42.988-42.988 0-23.707-19.281-42.98-42.988-42.98z"/>
 <path d="m49.996 84.625c-11.508-0.019531-22.254-5.7695-28.645-15.34-6.3945-9.5703-7.5977-21.695-3.207-32.336 4.3867-10.637 13.793-18.391 25.074-20.668 11.281-2.2734 22.953 1.2227 31.129 9.3242 8.1719 8.1055 11.766 19.75 9.5859 31.047-2.1836 11.301-9.8555 20.77-20.457 25.25-4.2617 1.8047-8.8477 2.7305-13.48 2.7227zm0-68.332c-18.59 0-33.711 15.121-33.711 33.711 0 18.586 15.125 33.707 33.711 33.707 18.586 0 33.715-15.121 33.715-33.715 0-18.59-15.121-33.707-33.715-33.707z"/>
 <path d="m49.996 75.348c-8.4258-0.011718-16.293-4.2227-20.977-11.227-4.6797-7.0078-5.5625-15.887-2.3477-23.68 3.2148-7.7891 10.098-13.465 18.359-15.133 8.2578-1.6641 16.809 0.89453 22.793 6.8281 5.9844 5.9336 8.6133 14.457 7.0195 22.734-1.5977 8.2734-7.2148 15.207-14.977 18.484-3.125 1.3242-6.4805 2-9.8711 1.9922zm0-49.781c-13.469-0.003906-24.434 10.961-24.434 24.43s10.965 24.441 24.434 24.441 24.441-10.965 24.441-24.441c0-13.477-10.965-24.434-24.441-24.434z"/>
 <path d="m49.996 66.074c-5.3438-0.003907-10.332-2.6758-13.301-7.1172-2.9688-4.4414-3.5273-10.074-1.4883-15.012 2.0352-4.9414 6.4023-8.5391 11.637-9.5977 5.2383-1.0547 10.66 0.56641 14.453 4.3281s5.4648 9.168 4.4492 14.414c-1.0117 5.2461-4.5703 9.6406-9.4922 11.723-1.9805 0.83594-4.1094 1.2656-6.2578 1.2617zm0-31.234c-8.3516 0-15.156 6.8047-15.156 15.156 0 8.3516 6.8047 15.164 15.156 15.164 8.3516 0 15.16-6.8008 15.16-15.16s-6.7969-15.16-15.16-15.16z"/>
 <path d="m49.996 56.801c-2.75 0-5.2305-1.6562-6.2812-4.1992-1.0547-2.5391-0.47266-5.4648 1.4727-7.4102 1.9453-1.9453 4.8711-2.5273 7.4102-1.4727 2.543 1.0508 4.1992 3.5312 4.1992 6.2812-0.003906 3.7539-3.0469 6.7969-6.8008 6.8008zm0-12.688c-2.3789 0-4.5273 1.4375-5.4375 3.6367-0.90625 2.1992-0.40234 4.7305 1.2812 6.4141 1.6836 1.6836 4.2188 2.1836 6.4141 1.2734 2.1992-0.91406 3.6328-3.0586 3.6328-5.4414-0.003907-3.25-2.6406-5.8828-5.8906-5.8828z"/>
 <path d="m99.543 50.457h-99.086c-0.25391 0-0.45703-0.20312-0.45703-0.45703 0-0.25 0.20312-0.45703 0.45703-0.45703h99.086c0.25391 0 0.45703 0.20703 0.45703 0.45703 0 0.25391-0.20312 0.45703-0.45703 0.45703z"/>
 <path d="m49.996 100c-0.12109 0-0.23828-0.046875-0.32422-0.13281-0.085937-0.085938-0.13281-0.20313-0.13281-0.32422v-99.086c0-0.25391 0.20313-0.45703 0.45703-0.45703s0.45703 0.20312 0.45703 0.45703v99.086c0 0.25391-0.20703 0.45703-0.45703 0.45703z"/>
 <path d="m26.289 70.918c0 4.4141-6.6211 4.4141-6.6211 0 0-4.418 6.6211-4.418 6.6211 0"/>
 <path d="m63.262 38.359c0 4.4141-6.625 4.4141-6.625 0 0-4.418 6.625-4.418 6.625 0"/>
<text x="0.0" y="117.5" font-size="5.0" font-weight="bold" font-family="Arbeit Regular, Helvetica, Arial-Unicode, Arial, Sans-serif" fill="#000000">Created by Perkasa Rambe</text><text x="0.0" y="122.5" font-size="5.0" font-weight="bold" font-family="Arbeit Regular, Helvetica, Arial-Unicode, Arial, Sans-serif" fill="#000000">from Noun Project</text></svg>